<?xml version="1.0" encoding="iso-8859-1"?>
<!-- Generator: Adobe Illustrator 18.1.1, SVG Export Plug-In . SVG Version: 6.00 Build 0)  -->
<svg xmlns="http://www.w3.org/2000/svg" xmlns:xlink="http://www.w3.org/1999/xlink" version="1.1" id="Capa_1" x="0px" y="0px" viewBox="0 0 25.05 25.05" style="enable-background:new 0 0 25.05 25.05;" xml:space="preserve" width="512px" height="512px">
<g>
	<path d="M20.856,14.113c-0.121,0-0.233,0.026-0.351,0.037c0.12-0.735,0.199-0.821,0.214-1.596   c0,0.005-0.003,0.01-0.003,0.017c0.009-0.069,0.023-0.138,0.024-0.208c-0.184-3.865-4.83-6.08-10.065-6.126   c-5.236,0.046-9.88,2.261-10.068,6.126c0.005,0.07,0.021,0.139,0.025,0.208c0-0.001,0-0.001,0-0.001   c0.155,6.924,4.587,12.48,10.042,12.48c2.987,0,5.664-1.675,7.503-4.318c0.655,0.745,1.605,1.222,2.678,1.222   c1.98,0,3.587-2.271,3.587-4.253C24.442,15.722,22.836,14.113,20.856,14.113z M17.178,15.035c-1.607,0.915-3.948,1.524-6.547,1.521   c-2.602,0.004-4.944-0.606-6.553-1.521c-1.631-0.927-2.4-2.064-2.386-3.07C1.677,10.95,2.45,9.814,4.078,8.888   c1.609-0.917,3.951-1.524,6.553-1.52c2.599-0.005,4.94,0.603,6.547,1.52c1.631,0.927,2.404,2.062,2.389,3.077   C19.582,12.971,18.809,14.108,17.178,15.035z M20.856,20.009c-0.76-0.001-1.372-0.527-1.558-1.227   c0.259-0.563,0.488-1.821,0.683-2.433c0.258-0.165,0.545-0.287,0.875-0.291c0.904,0.004,1.639,0.739,1.641,1.643   C22.494,18.607,21.76,20.008,20.856,20.009z" fill="#FFFFFF"/>
	<path d="M16.36,9.175c-1.406-0.8-3.455-1.331-5.73-1.329C8.353,7.844,6.302,8.375,4.894,9.175   C3.47,9.987,2.793,10.982,2.805,11.87c-0.011,0.881,0.662,1.876,2.089,2.688c0,0,1.991-4.168,5.188-1.029   c3.196,3.139,1.574-3.319,4.137-0.82c2.563,2.498,4.233-0.839,4.233-0.839C18.465,10.981,17.789,9.987,16.36,9.175z" fill="#FFFFFF"/>
	<path d="M8.202,1.783c0.128,0.104,0.262,0.18,0.385,0.26C8.826,2.201,9.091,2.355,9.27,2.545   c0.093,0.094,0.17,0.2,0.238,0.297c0.067,0.099,0.124,0.193,0.16,0.291c0.071,0.192,0.059,0.375,0.021,0.585   C9.616,4.146,9.354,4.624,9.096,5.149L9.139,5.2c0.292-0.103,0.537-0.278,0.757-0.493c0.216-0.218,0.402-0.487,0.496-0.826   c0.097-0.331,0.036-0.744-0.158-1.045c-0.186-0.312-0.478-0.495-0.762-0.602c-0.143-0.059-0.289-0.1-0.411-0.151   C8.935,2.029,8.818,1.958,8.718,1.868C8.513,1.693,8.421,1.407,8.445,1.242C8.453,1.159,8.468,1.09,8.496,0.998   c0.031-0.087,0.083-0.186,0.15-0.286C8.777,0.509,8.954,0.301,9.132,0.06L9.102,0C8.944,0.009,8.796,0.051,8.656,0.111   C8.513,0.169,8.38,0.251,8.257,0.356c-0.123,0.107-0.237,0.24-0.316,0.41c-0.08,0.168-0.111,0.386-0.05,0.578   C7.951,1.536,8.074,1.681,8.202,1.783z" fill="#FFFFFF"/>
	<path d="M10.845,3.016c0.099,0.067,0.194,0.109,0.277,0.159c0.162,0.097,0.336,0.21,0.431,0.35   c0.102,0.142,0.163,0.278,0.194,0.377c0.024,0.107,0.004,0.185-0.009,0.301c-0.014,0.112-0.053,0.255-0.101,0.414   c-0.05,0.161-0.114,0.33-0.169,0.533l0.044,0.05c0.217-0.039,0.397-0.141,0.559-0.275c0.16-0.136,0.299-0.319,0.369-0.559   c0.073-0.238,0.023-0.546-0.126-0.76c-0.139-0.224-0.357-0.34-0.559-0.394c-0.101-0.03-0.204-0.05-0.283-0.078   C11.39,3.105,11.315,3.061,11.255,3c-0.13-0.117-0.146-0.328-0.103-0.393c0.017-0.035,0.024-0.055,0.032-0.1   c0.013-0.044,0.036-0.101,0.067-0.165c0.066-0.132,0.161-0.28,0.253-0.475l-0.03-0.06c-0.115-0.016-0.22,0.001-0.322,0.031   c-0.104,0.028-0.2,0.078-0.289,0.148c-0.09,0.07-0.174,0.162-0.233,0.287c-0.062,0.12-0.084,0.288-0.033,0.433   C10.649,2.853,10.749,2.952,10.845,3.016z" fill="#FFFFFF"/>
</g>
<g>
</g>
<g>
</g>
<g>
</g>
<g>
</g>
<g>
</g>
<g>
</g>
<g>
</g>
<g>
</g>
<g>
</g>
<g>
</g>
<g>
</g>
<g>
</g>
<g>
</g>
<g>
</g>
<g>
</g>
</svg>
