<?xml version="1.0" encoding="iso-8859-1"?>
<!-- Generator: Adobe Illustrator 19.0.0, SVG Export Plug-In . SVG Version: 6.00 Build 0)  -->
<svg xmlns="http://www.w3.org/2000/svg" xmlns:xlink="http://www.w3.org/1999/xlink" version="1.1" id="Capa_1" x="0px" y="0px" viewBox="0 0 512 512" style="enable-background:new 0 0 512 512;" xml:space="preserve" width="512px" height="512px">
<g>
	<g>
		<path d="M405.353,377.987C389.421,354.09,381,326.277,381,297.555V216c0-33.47-13.057-64.915-36.766-88.542    c-20.117-20.048-45.839-32.399-73.623-35.612V61h-30v30.96C178.951,99.654,131,152.956,131,217.194v80.362    c0,28.722-8.421,56.535-24.353,80.432L77.973,421H213.58c6.192,17.458,22.865,30,42.42,30s36.228-12.542,42.42-30h135.607    L405.353,377.987z" fill="#FFFFFF"/>
	</g>
</g>
<g>
	<g>
		<path d="M469.53,153.469l-21.213,21.213C470.038,196.403,482,225.282,482,256c0,30.044-11.514,58.467-32.419,80.034l21.541,20.881    C497.482,329.72,512,293.881,512,256C512,217.269,496.917,180.856,469.53,153.469z" fill="#FFFFFF"/>
	</g>
</g>
<g>
	<g>
		<path d="M427.104,195.896l-21.213,21.214C416.279,227.497,422,241.308,422,256c0,14.463-5.568,28.12-15.68,38.456l21.445,20.979    C443.394,299.459,452,278.351,452,256C452,233.295,443.158,211.95,427.104,195.896z" fill="#FFFFFF"/>
	</g>
</g>
<g>
	<g>
		<path d="M63.683,174.682L42.47,153.469C15.083,180.856,0,217.269,0,256c0,37.881,14.518,73.72,40.878,100.915l21.541-20.881    C41.514,314.467,30,286.044,30,256C30,225.282,41.962,196.403,63.683,174.682z" fill="#FFFFFF"/>
	</g>
</g>
<g>
	<g>
		<path d="M106.109,217.109l-21.213-21.214C68.842,211.949,60,233.295,60,256c0,22.351,8.606,43.459,24.234,59.435l21.445-20.979    C95.568,284.12,90,270.463,90,256C90,241.309,95.721,227.497,106.109,217.109z" fill="#FFFFFF"/>
	</g>
</g>
<g>
</g>
<g>
</g>
<g>
</g>
<g>
</g>
<g>
</g>
<g>
</g>
<g>
</g>
<g>
</g>
<g>
</g>
<g>
</g>
<g>
</g>
<g>
</g>
<g>
</g>
<g>
</g>
<g>
</g>
</svg>
